<svg xmlns="http://www.w3.org/2000/svg" viewBox="0 0 64 64" id="customer-testimonial">
  <path d="M61,38H57.1431l-1.1919-3.6685a1.0088,1.0088,0,0,0-1.9023,0L52.8569,38H49a1.0087,1.0087,0,0,0-.5879,1.8091l3.1206,2.2671-1.1919,3.668A1.0088,1.0088,0,0,0,51.88,46.8623L55,44.5952l3.12,2.2671a1.01,1.01,0,0,0,1.5391-1.1182l-1.1919-3.668,3.1206-2.2671A.9872.9872,0,0,0,61,38Zm-4.6592,4.0034.4653,1.4321L55.5879,42.55a1.0087,1.0087,0,0,0-1.1758,0l-1.2183.8853.4653-1.4321a1,1,0,0,0-.3633-1.1182L52.0776,40h1.5059a1,1,0,0,0,.9512-.6909L55,37.8765l.4653,1.4326A1,1,0,0,0,56.4165,40h1.5059l-1.2183.8853A1,1,0,0,0,56.3408,42.0034ZM2.4121,39.8091l3.1206,2.2671-1.1919,3.668A1.01,1.01,0,0,0,5.88,46.8623L9,44.5952l3.12,2.2671a1.0088,1.0088,0,0,0,1.5391-1.1182l-1.1919-3.668,3.1206-2.2671A1.0087,1.0087,0,0,0,15,38H11.1431L9.9512,34.3315a1.0088,1.0088,0,0,0-1.9023,0L6.8569,38H3A.9872.9872,0,0,0,2.4121,39.8091Zm4.8838,1.0762L6.0776,40H7.5835a1,1,0,0,0,.9512-.6909L9,37.8765l.4653,1.4326A1,1,0,0,0,10.4165,40h1.5059l-1.2183.8853a1,1,0,0,0-.3633,1.1182l.4653,1.4321L9.5879,42.55a1.0087,1.0087,0,0,0-1.1758,0l-1.2183.8853.4653-1.4321A1,1,0,0,0,7.2959,40.8853ZM32,44.2969A20.1177,20.1177,0,1,0,11.8823,24.1792,20.1407,20.1407,0,0,0,32,44.2969Zm0-38A17.8823,17.8823,0,1,1,14.1177,24.1792,17.9026,17.9026,0,0,1,32,6.2969ZM50.9857,48.0047H47.1288l-1.1919-3.6685a1.0088,1.0088,0,0,0-1.9023,0l-1.1919,3.6685H38.9857a1.0087,1.0087,0,0,0-.5879,1.8091l3.1206,2.2671-1.1919,3.668a1.0088,1.0088,0,0,0,1.5391,1.1182l3.12-2.2671,3.12,2.2671a1.01,1.01,0,0,0,1.5391-1.1182l-1.1919-3.668,3.1206-2.2671A.9872.9872,0,0,0,50.9857,48.0047Zm-4.6592,4.0034.4653,1.4321-1.2183-.8853a1.0087,1.0087,0,0,0-1.1758,0L43.18,53.44l.4653-1.4321a1,1,0,0,0-.3633-1.1182l-1.2183-.8853h1.5059a1,1,0,0,0,.9512-.6909l.4653-1.4326.4653,1.4326a1,1,0,0,0,.9512.6909h1.5059L46.69,50.89A1,1,0,0,0,46.3265,52.0082Zm-8.3607-.9875H34.1089L32.917,47.3523a1.0088,1.0088,0,0,0-1.9023,0l-1.1919,3.6685H25.9659A1.0087,1.0087,0,0,0,25.378,52.83l3.1206,2.2671-1.1919,3.668a1.0088,1.0088,0,0,0,1.5391,1.1182l3.12-2.2671,3.12,2.2671a1.01,1.01,0,0,0,1.5391-1.1182l-1.1919-3.668L38.5537,52.83A.9872.9872,0,0,0,37.9659,51.0207Zm-4.6592,4.0034.4653,1.4321-1.2183-.8853a1.0087,1.0087,0,0,0-1.1758,0l-1.2183.8853.4653-1.4321a1,1,0,0,0-.3633-1.1182l-1.2183-.8853h1.5059a1,1,0,0,0,.9512-.6909l.4653-1.4326.4653,1.4326a1,1,0,0,0,.9512.6909h1.5059L33.67,53.906A1,1,0,0,0,33.3067,55.0241Zm-8.321-7.0309H21.1288l-1.1919-3.6685a1.0088,1.0088,0,0,0-1.9023,0l-1.1919,3.6685H12.9857a1.0087,1.0087,0,0,0-.5879,1.8091l3.1206,2.2671-1.1919,3.668a1.0088,1.0088,0,0,0,1.5391,1.1182l3.12-2.2671,3.12,2.2671a1.01,1.01,0,0,0,1.5391-1.1182l-1.1919-3.668,3.1206-2.2671A.9872.9872,0,0,0,24.9857,47.9932Zm-4.6592,4.0034.4653,1.4321-1.2183-.8853a1.0087,1.0087,0,0,0-1.1758,0l-1.2183.8853.4653-1.4321a1,1,0,0,0-.3633-1.1182l-1.2183-.8853h1.5059a1,1,0,0,0,.9512-.6909l.4653-1.4326.4653,1.4326a1,1,0,0,0,.9512.6909h1.5059l-1.2183.8853A1,1,0,0,0,20.3265,51.9967Zm17.61-24.1876-2.4444-.4073a5,5,0,1,0-6.9843,0l-2.4444.4073A3.6551,3.6551,0,0,0,23,31.4258v4.4077a1,1,0,0,0,.7573.97A47.2776,47.2776,0,0,0,32,38.1665a47.2776,47.2776,0,0,0,8.2427-1.3628,1,1,0,0,0,.7573-.97V31.4258A3.6551,3.6551,0,0,0,37.9365,27.8091ZM32,20.8335a3,3,0,1,1-3,3A3.0033,3.0033,0,0,1,32,20.8335Zm7,14.21a40.3671,40.3671,0,0,1-7,1.1226,40.3671,40.3671,0,0,1-7-1.1226V31.4258a1.6617,1.6617,0,0,1,1.3926-1.644L32,28.8472l5.6074.9346A1.6617,1.6617,0,0,1,39,31.4258Zm-21-7c.8318.1929,2.2393.5017,3.6628.7476a5.6279,5.6279,0,0,0-.6,1.9268c-2.1677-.3842-4.17-.8807-4.3057-.9146a1,1,0,0,1-.7573-.97V24.4258a3.6551,3.6551,0,0,1,3.0635-3.6167l2.4444-.4073a4.99,4.99,0,1,1,8.4615-3.2656A6.99,6.99,0,0,0,27.507,18.473c1.9272-2.9368-2.1565-6.2306-4.6273-3.76s.8221,6.5551,3.76,4.6273a7.1024,7.1024,0,0,0-1.36,2.5533L25,21.8472l-5.6074.9346A1.6617,1.6617,0,0,0,18,24.4258Zm30-3.6182v4.4077a1,1,0,0,1-.7573.97c-.1355.0339-2.138.53-4.3057.9146a5.6266,5.6266,0,0,0-.6-1.9268c1.4236-.2458,2.831-.5546,3.6628-.7476V24.4258a1.6617,1.6617,0,0,0-1.3926-1.644L39,21.8472l-.2793.0466a7.1024,7.1024,0,0,0-1.36-2.5533c2.9368,1.9272,6.2306-2.1565,3.76-4.6273s-6.5551.8221-4.6273,3.76a6.99,6.99,0,0,0-2.4625-1.3368,4.99,4.99,0,1,1,8.4615,3.2656l2.4444.4073A3.6551,3.6551,0,0,1,48,24.4258Z"></path>
</svg>
