<svg xmlns="http://www.w3.org/2000/svg" fill-rule="evenodd" stroke-linejoin="round" stroke-miterlimit="2" clip-rule="evenodd" viewBox="0 0 32 32" id="search">
  <path d="M21 26.5v-1c-3.311 0-6-2.689-6-6s2.689-6 6-6v-1h1V7a.997.997 0 0 0-.293-.707l-6-6A.997.997 0 0 0 15 0H3a3 3 0 0 0-3 3v26c0 .796.316 1.559.879 2.121A2.996 2.996 0 0 0 3 32h16c.796 0 1.559-.316 2.121-.879A2.996 2.996 0 0 0 22 29v-2.5h-1ZM14.586 2H3a1 1 0 0 0-1 1v26a.997.997 0 0 0 1 1h16a.997.997 0 0 0 1-1v-1.562c-3.944-.493-7-3.861-7-7.938s3.056-7.445 7-7.938V7.414L14.586 2Z"></path>
  <path d="M21 8a1.002 1.002 0 0 0 .707-1.707l-6-6A1 1 0 0 0 14 1v4a3 3 0 0 0 3 3h4ZM5 10h3a1 1 0 0 0 0-2H5a1 1 0 0 0 0 2ZM13 12H5a1 1 0 0 0 0 2h8a1 1 0 0 0 0-2ZM12 10h1a1 1 0 0 0 0-2h-1a1 1 0 0 0 0 2ZM21 11.5c-4.415 0-8 3.584-8 8s3.585 8 8 8c4.417 0 8-3.584 8-8s-3.583-8-8-8Zm0 2c3.312 0 6 2.69 6 6 0 3.311-2.688 6-6 6-3.31 0-6-2.689-6-6 0-3.31 2.69-6 6-6Z"></path>
  <path d="m24.794 26.137 5.57 5.57a1 1 0 0 0 1.415-1.414l-5.571-5.57a1 1 0 0 0-1.414 1.414Z"></path>
</svg>
